<svg xmlns="http://www.w3.org/2000/svg" xmlns:xlink="http://www.w3.org/1999/xlink" id="Layer_1" x="0px" y="0px" viewBox="0 0 512 512" style="enable-background:new 0 0 512 512;" xml:space="preserve"><style type="text/css">	.st0{fill-rule:evenodd;clip-rule:evenodd;}</style><g id="businessman">	<path class="st0" d="M256,24C127.9,24,24,127.9,24,256s103.9,232,232,232s232-103.9,232-232C487.9,127.9,384.1,24.1,256,24z   M256,472c-119.3,0-216-96.7-216-216S136.7,40,256,40s216,96.7,216,216C471.9,375.3,375.3,471.9,256,472z"></path>	<path class="st0" d="M294.4,256.7c39.5-21.2,54.4-70.3,33.2-109.8s-70.3-54.4-109.8-33.2s-54.4,70.3-33.2,109.8  c7.6,14.1,19.1,25.6,33.2,33.2c-47.5,16.4-79.4,61.1-79.5,111.3c0,4.4,3.6,8,8,8s8-3.6,8-8c0-56.2,45.5-101.7,101.7-101.7  s101.7,45.5,101.7,101.7c0,0,0,0,0,0.1c0,4.4,3.6,8,8,8s8-3.6,8-8C373.7,317.8,341.9,273.1,294.4,256.7L294.4,256.7z M190.9,185.1  c0-36,29.2-65.1,65.2-65.1c36,0,65.1,29.2,65.1,65.2c0,36-29.2,65.1-65.2,65.1c0,0,0,0-0.1,0C220,250.3,190.9,221.1,190.9,185.1  L190.9,185.1z"></path></g></svg>